<mxfile host="app.diagrams.net" modified="2021-06-28T08:39:39.530Z" agent="5.0 (Windows NT 10.0; Win64; x64) AppleWebKit/537.36 (KHTML, like Gecko) Chrome/91.0.4472.114 Safari/537.36" etag="UPYkg-fTtzIzLs7Kv3RJ" version="14.8.1" type="github">
  <diagram id="C5RBs43oDa-KdzZeNtuy" name="Page-1">
    <mxGraphModel dx="981" dy="526" grid="1" gridSize="10" guides="1" tooltips="1" connect="1" arrows="1" fold="1" page="1" pageScale="1" pageWidth="827" pageHeight="1169" math="0" shadow="0">
      <root>
        <mxCell id="WIyWlLk6GJQsqaUBKTNV-0" />
        <mxCell id="WIyWlLk6GJQsqaUBKTNV-1" parent="WIyWlLk6GJQsqaUBKTNV-0" />
        <mxCell id="0wVWBR_AB99_waObOdWN-3" style="edgeStyle=orthogonalEdgeStyle;rounded=0;orthogonalLoop=1;jettySize=auto;html=1;entryX=0.5;entryY=0;entryDx=0;entryDy=0;exitX=0.5;exitY=1;exitDx=0;exitDy=0;" edge="1" parent="WIyWlLk6GJQsqaUBKTNV-1" source="WIyWlLk6GJQsqaUBKTNV-3" target="0wVWBR_AB99_waObOdWN-1">
          <mxGeometry relative="1" as="geometry">
            <Array as="points">
              <mxPoint x="420" y="90" />
              <mxPoint x="420" y="170" />
              <mxPoint x="240" y="170" />
              <mxPoint x="240" y="210" />
            </Array>
          </mxGeometry>
        </mxCell>
        <mxCell id="0wVWBR_AB99_waObOdWN-4" value="&#xa;&#xa;&lt;span style=&quot;color: rgb(0, 0, 0); font-family: helvetica; font-style: normal; font-weight: 400; letter-spacing: normal; text-align: center; text-indent: 0px; text-transform: none; word-spacing: 0px; background-color: rgb(248, 249, 250); font-size: 10.5pt;&quot;&gt;分两次降采样，尺寸变为原来的&lt;/span&gt;&lt;span lang=&quot;EN-US&quot; style=&quot;color: rgb(0, 0, 0); font-style: normal; font-weight: 400; letter-spacing: normal; text-align: center; text-indent: 0px; text-transform: none; word-spacing: 0px; background-color: rgb(248, 249, 250); font-size: 10.5pt; font-family: calibri, sans-serif;&quot;&gt;1/4&lt;/span&gt;&#xa;&#xa;" style="edgeStyle=orthogonalEdgeStyle;rounded=0;orthogonalLoop=1;jettySize=auto;html=1;exitX=0.5;exitY=1;exitDx=0;exitDy=0;entryX=0.5;entryY=0;entryDx=0;entryDy=0;" edge="1" parent="WIyWlLk6GJQsqaUBKTNV-1" source="WIyWlLk6GJQsqaUBKTNV-3" target="0wVWBR_AB99_waObOdWN-2">
          <mxGeometry x="0.3125" y="40" relative="1" as="geometry">
            <Array as="points">
              <mxPoint x="420" y="90" />
              <mxPoint x="420" y="170" />
              <mxPoint x="600" y="170" />
            </Array>
            <mxPoint as="offset" />
          </mxGeometry>
        </mxCell>
        <mxCell id="WIyWlLk6GJQsqaUBKTNV-3" value="&lt;span style=&quot;font-size: 10.5pt&quot;&gt;当前&lt;/span&gt;&lt;span lang=&quot;EN-US&quot; style=&quot;font-size: 10.5pt ; font-family: &amp;#34;calibri&amp;#34; , sans-serif&quot;&gt;back depth buffer&lt;/span&gt;" style="rounded=1;whiteSpace=wrap;html=1;fontSize=12;glass=0;strokeWidth=1;shadow=0;" parent="WIyWlLk6GJQsqaUBKTNV-1" vertex="1">
          <mxGeometry x="360" y="20" width="120" height="70" as="geometry" />
        </mxCell>
        <mxCell id="0wVWBR_AB99_waObOdWN-24" style="edgeStyle=orthogonalEdgeStyle;rounded=0;orthogonalLoop=1;jettySize=auto;html=1;exitX=0.5;exitY=1;exitDx=0;exitDy=0;entryX=1;entryY=0;entryDx=0;entryDy=0;" edge="1" parent="WIyWlLk6GJQsqaUBKTNV-1" source="0wVWBR_AB99_waObOdWN-1" target="0wVWBR_AB99_waObOdWN-26">
          <mxGeometry relative="1" as="geometry">
            <mxPoint x="280" y="370" as="targetPoint" />
            <Array as="points">
              <mxPoint x="240" y="320" />
              <mxPoint x="280" y="320" />
            </Array>
          </mxGeometry>
        </mxCell>
        <mxCell id="0wVWBR_AB99_waObOdWN-1" value="原始16像素块内最大深度图" style="whiteSpace=wrap;html=1;aspect=fixed;" vertex="1" parent="WIyWlLk6GJQsqaUBKTNV-1">
          <mxGeometry x="200" y="200" width="80" height="80" as="geometry" />
        </mxCell>
        <mxCell id="0wVWBR_AB99_waObOdWN-12" value="" style="edgeStyle=orthogonalEdgeStyle;rounded=0;orthogonalLoop=1;jettySize=auto;html=1;entryX=0;entryY=0;entryDx=0;entryDy=0;" edge="1" parent="WIyWlLk6GJQsqaUBKTNV-1" source="0wVWBR_AB99_waObOdWN-2" target="0wVWBR_AB99_waObOdWN-27">
          <mxGeometry relative="1" as="geometry">
            <mxPoint x="600" y="360" as="targetPoint" />
            <Array as="points">
              <mxPoint x="600" y="320" />
              <mxPoint x="560" y="320" />
            </Array>
          </mxGeometry>
        </mxCell>
        <mxCell id="0wVWBR_AB99_waObOdWN-2" value="&lt;span&gt;原始16像素块内最小深度图&lt;/span&gt;" style="whiteSpace=wrap;html=1;aspect=fixed;" vertex="1" parent="WIyWlLk6GJQsqaUBKTNV-1">
          <mxGeometry x="560" y="200" width="80" height="80" as="geometry" />
        </mxCell>
        <mxCell id="0wVWBR_AB99_waObOdWN-29" style="edgeStyle=orthogonalEdgeStyle;rounded=0;orthogonalLoop=1;jettySize=auto;html=1;exitX=0.5;exitY=1;exitDx=0;exitDy=0;entryX=1;entryY=0;entryDx=0;entryDy=0;" edge="1" parent="WIyWlLk6GJQsqaUBKTNV-1" source="0wVWBR_AB99_waObOdWN-5" target="0wVWBR_AB99_waObOdWN-28">
          <mxGeometry relative="1" as="geometry">
            <mxPoint x="560" y="360" as="targetPoint" />
            <Array as="points">
              <mxPoint x="420" y="320" />
              <mxPoint x="560" y="320" />
            </Array>
          </mxGeometry>
        </mxCell>
        <mxCell id="0wVWBR_AB99_waObOdWN-30" style="edgeStyle=orthogonalEdgeStyle;rounded=0;orthogonalLoop=1;jettySize=auto;html=1;entryX=1;entryY=0;entryDx=0;entryDy=0;" edge="1" parent="WIyWlLk6GJQsqaUBKTNV-1" source="0wVWBR_AB99_waObOdWN-5" target="0wVWBR_AB99_waObOdWN-26">
          <mxGeometry relative="1" as="geometry">
            <Array as="points">
              <mxPoint x="420" y="320" />
              <mxPoint x="280" y="320" />
            </Array>
          </mxGeometry>
        </mxCell>
        <mxCell id="0wVWBR_AB99_waObOdWN-5" value="需要降低分辨率绘制的特效" style="rounded=1;whiteSpace=wrap;html=1;" vertex="1" parent="WIyWlLk6GJQsqaUBKTNV-1">
          <mxGeometry x="320" y="200" width="200" height="80" as="geometry" />
        </mxCell>
        <mxCell id="0wVWBR_AB99_waObOdWN-7" value="基于最大深度图绘制的特效RT" style="rounded=0;whiteSpace=wrap;html=1;" vertex="1" parent="WIyWlLk6GJQsqaUBKTNV-1">
          <mxGeometry x="280" y="365" width="120" height="70" as="geometry" />
        </mxCell>
        <mxCell id="0wVWBR_AB99_waObOdWN-31" style="edgeStyle=orthogonalEdgeStyle;rounded=0;orthogonalLoop=1;jettySize=auto;html=1;exitX=0.5;exitY=1;exitDx=0;exitDy=0;" edge="1" parent="WIyWlLk6GJQsqaUBKTNV-1" source="0wVWBR_AB99_waObOdWN-26">
          <mxGeometry relative="1" as="geometry">
            <mxPoint x="360" y="560" as="targetPoint" />
            <Array as="points">
              <mxPoint x="220" y="480" />
              <mxPoint x="360" y="480" />
            </Array>
          </mxGeometry>
        </mxCell>
        <mxCell id="0wVWBR_AB99_waObOdWN-44" style="edgeStyle=orthogonalEdgeStyle;rounded=0;orthogonalLoop=1;jettySize=auto;html=1;exitX=1;exitY=1;exitDx=0;exitDy=0;" edge="1" parent="WIyWlLk6GJQsqaUBKTNV-1" source="0wVWBR_AB99_waObOdWN-26">
          <mxGeometry relative="1" as="geometry">
            <mxPoint x="279.6896551724137" y="840" as="targetPoint" />
          </mxGeometry>
        </mxCell>
        <mxCell id="0wVWBR_AB99_waObOdWN-26" value="经过深度测试的最大深度图" style="rounded=0;whiteSpace=wrap;html=1;" vertex="1" parent="WIyWlLk6GJQsqaUBKTNV-1">
          <mxGeometry x="160" y="365" width="120" height="70" as="geometry" />
        </mxCell>
        <mxCell id="0wVWBR_AB99_waObOdWN-27" value="基于最小深度图绘制的特效RT" style="rounded=0;whiteSpace=wrap;html=1;" vertex="1" parent="WIyWlLk6GJQsqaUBKTNV-1">
          <mxGeometry x="560" y="365" width="120" height="70" as="geometry" />
        </mxCell>
        <mxCell id="0wVWBR_AB99_waObOdWN-32" style="edgeStyle=orthogonalEdgeStyle;rounded=0;orthogonalLoop=1;jettySize=auto;html=1;exitX=0.5;exitY=1;exitDx=0;exitDy=0;" edge="1" parent="WIyWlLk6GJQsqaUBKTNV-1" source="0wVWBR_AB99_waObOdWN-28">
          <mxGeometry relative="1" as="geometry">
            <mxPoint x="360" y="560" as="targetPoint" />
            <Array as="points">
              <mxPoint x="500" y="480" />
              <mxPoint x="360" y="480" />
            </Array>
          </mxGeometry>
        </mxCell>
        <mxCell id="0wVWBR_AB99_waObOdWN-48" style="edgeStyle=orthogonalEdgeStyle;rounded=0;orthogonalLoop=1;jettySize=auto;html=1;exitX=1;exitY=1;exitDx=0;exitDy=0;" edge="1" parent="WIyWlLk6GJQsqaUBKTNV-1" source="0wVWBR_AB99_waObOdWN-28">
          <mxGeometry relative="1" as="geometry">
            <mxPoint x="850" y="840" as="targetPoint" />
            <Array as="points">
              <mxPoint x="560" y="480" />
              <mxPoint x="850" y="480" />
            </Array>
          </mxGeometry>
        </mxCell>
        <mxCell id="0wVWBR_AB99_waObOdWN-28" value="经过深度测试的最小深度图" style="rounded=0;whiteSpace=wrap;html=1;" vertex="1" parent="WIyWlLk6GJQsqaUBKTNV-1">
          <mxGeometry x="440" y="365" width="120" height="70" as="geometry" />
        </mxCell>
        <mxCell id="0wVWBR_AB99_waObOdWN-35" value="" style="edgeStyle=orthogonalEdgeStyle;rounded=0;orthogonalLoop=1;jettySize=auto;html=1;" edge="1" parent="WIyWlLk6GJQsqaUBKTNV-1" source="0wVWBR_AB99_waObOdWN-33" target="0wVWBR_AB99_waObOdWN-34">
          <mxGeometry relative="1" as="geometry" />
        </mxCell>
        <mxCell id="0wVWBR_AB99_waObOdWN-33" value="提取边缘点区域" style="rounded=0;whiteSpace=wrap;html=1;" vertex="1" parent="WIyWlLk6GJQsqaUBKTNV-1">
          <mxGeometry x="300" y="560" width="120" height="60" as="geometry" />
        </mxCell>
        <mxCell id="0wVWBR_AB99_waObOdWN-37" value="" style="edgeStyle=orthogonalEdgeStyle;rounded=0;orthogonalLoop=1;jettySize=auto;html=1;" edge="1" parent="WIyWlLk6GJQsqaUBKTNV-1" source="0wVWBR_AB99_waObOdWN-34" target="0wVWBR_AB99_waObOdWN-36">
          <mxGeometry relative="1" as="geometry" />
        </mxCell>
        <mxCell id="0wVWBR_AB99_waObOdWN-34" value="边缘点区域膨胀（只允许向depth更小的像素点流动）" style="rounded=0;whiteSpace=wrap;html=1;" vertex="1" parent="WIyWlLk6GJQsqaUBKTNV-1">
          <mxGeometry x="500" y="560" width="120" height="60" as="geometry" />
        </mxCell>
        <mxCell id="0wVWBR_AB99_waObOdWN-39" value="" style="edgeStyle=orthogonalEdgeStyle;rounded=0;orthogonalLoop=1;jettySize=auto;html=1;" edge="1" parent="WIyWlLk6GJQsqaUBKTNV-1" source="0wVWBR_AB99_waObOdWN-36" target="0wVWBR_AB99_waObOdWN-38">
          <mxGeometry relative="1" as="geometry" />
        </mxCell>
        <mxCell id="0wVWBR_AB99_waObOdWN-41" value="" style="edgeStyle=orthogonalEdgeStyle;rounded=0;orthogonalLoop=1;jettySize=auto;html=1;" edge="1" parent="WIyWlLk6GJQsqaUBKTNV-1" source="0wVWBR_AB99_waObOdWN-36" target="0wVWBR_AB99_waObOdWN-40">
          <mxGeometry relative="1" as="geometry" />
        </mxCell>
        <mxCell id="0wVWBR_AB99_waObOdWN-43" value="" style="edgeStyle=orthogonalEdgeStyle;rounded=0;orthogonalLoop=1;jettySize=auto;html=1;" edge="1" parent="WIyWlLk6GJQsqaUBKTNV-1" source="0wVWBR_AB99_waObOdWN-36" target="0wVWBR_AB99_waObOdWN-42">
          <mxGeometry relative="1" as="geometry" />
        </mxCell>
        <mxCell id="0wVWBR_AB99_waObOdWN-36" value="区域分类" style="whiteSpace=wrap;html=1;rounded=0;" vertex="1" parent="WIyWlLk6GJQsqaUBKTNV-1">
          <mxGeometry x="500" y="700" width="120" height="60" as="geometry" />
        </mxCell>
        <mxCell id="0wVWBR_AB99_waObOdWN-46" style="edgeStyle=orthogonalEdgeStyle;rounded=0;orthogonalLoop=1;jettySize=auto;html=1;exitX=0;exitY=0.5;exitDx=0;exitDy=0;" edge="1" parent="WIyWlLk6GJQsqaUBKTNV-1" source="0wVWBR_AB99_waObOdWN-38">
          <mxGeometry relative="1" as="geometry">
            <mxPoint x="280" y="729.8620689655172" as="targetPoint" />
          </mxGeometry>
        </mxCell>
        <mxCell id="0wVWBR_AB99_waObOdWN-38" value="非边缘区域" style="whiteSpace=wrap;html=1;rounded=0;" vertex="1" parent="WIyWlLk6GJQsqaUBKTNV-1">
          <mxGeometry x="300" y="700" width="120" height="60" as="geometry" />
        </mxCell>
        <mxCell id="0wVWBR_AB99_waObOdWN-52" value="" style="edgeStyle=orthogonalEdgeStyle;rounded=0;orthogonalLoop=1;jettySize=auto;html=1;" edge="1" parent="WIyWlLk6GJQsqaUBKTNV-1" source="0wVWBR_AB99_waObOdWN-40" target="0wVWBR_AB99_waObOdWN-51">
          <mxGeometry relative="1" as="geometry" />
        </mxCell>
        <mxCell id="0wVWBR_AB99_waObOdWN-40" value="原始边缘区域" style="whiteSpace=wrap;html=1;rounded=0;" vertex="1" parent="WIyWlLk6GJQsqaUBKTNV-1">
          <mxGeometry x="500" y="840" width="120" height="60" as="geometry" />
        </mxCell>
        <mxCell id="0wVWBR_AB99_waObOdWN-49" style="edgeStyle=orthogonalEdgeStyle;rounded=0;orthogonalLoop=1;jettySize=auto;html=1;exitX=1;exitY=0.5;exitDx=0;exitDy=0;" edge="1" parent="WIyWlLk6GJQsqaUBKTNV-1" source="0wVWBR_AB99_waObOdWN-42">
          <mxGeometry relative="1" as="geometry">
            <mxPoint x="850" y="729.8620689655172" as="targetPoint" />
          </mxGeometry>
        </mxCell>
        <mxCell id="0wVWBR_AB99_waObOdWN-42" value="膨胀边缘区域" style="whiteSpace=wrap;html=1;rounded=0;" vertex="1" parent="WIyWlLk6GJQsqaUBKTNV-1">
          <mxGeometry x="700" y="700" width="130" height="60" as="geometry" />
        </mxCell>
        <mxCell id="0wVWBR_AB99_waObOdWN-47" value="按照最大深度图混合到最终rt" style="rounded=0;whiteSpace=wrap;html=1;" vertex="1" parent="WIyWlLk6GJQsqaUBKTNV-1">
          <mxGeometry x="220" y="840" width="120" height="60" as="geometry" />
        </mxCell>
        <mxCell id="0wVWBR_AB99_waObOdWN-50" value="按照最小深度图混合到最终rt" style="rounded=0;whiteSpace=wrap;html=1;" vertex="1" parent="WIyWlLk6GJQsqaUBKTNV-1">
          <mxGeometry x="790" y="840" width="120" height="60" as="geometry" />
        </mxCell>
        <mxCell id="0wVWBR_AB99_waObOdWN-51" value="主depth buffer深度按比例混合max depth rt 和min depth rt" style="whiteSpace=wrap;html=1;rounded=0;" vertex="1" parent="WIyWlLk6GJQsqaUBKTNV-1">
          <mxGeometry x="500" y="940" width="120" height="60" as="geometry" />
        </mxCell>
      </root>
    </mxGraphModel>
  </diagram>
</mxfile>
